<svg width="58" height="30" viewBox="0 0 58 30" fill="none" xmlns="http://www.w3.org/2000/svg">
<path d="M57.4071 8.60322C57.4071 18.2724 51.9776 24.7492 50.6394 26.1678C49.304 27.5859 46.6508 29.7802 45.6244 30C44.5981 29.7802 41.9448 27.5859 40.6094 26.1678C39.2712 24.7492 33.8417 18.2724 33.8417 8.60322C33.8417 4.96663 34.5202 2.01117 35.6786 0C38.5621 1.53007 41.4369 2.30613 45.6244 2.30613C49.8119 2.30613 52.6867 1.53007 55.5702 0C56.7286 2.01117 57.4071 4.96663 57.4071 8.60322Z" fill="#1355E9"/>
<path d="M55.2914 8.51598C55.2914 6.65342 55 3.94732 54.3551 2.97182L54.2454 3.03317C52.4859 3.96714 49.2151 4.77815 45.6245 4.77815C42.0291 4.77815 38.6506 3.90577 36.8892 2.97182C36.2434 3.94732 35.9528 6.65342 35.9528 8.51598C35.9528 17.2387 40.4914 22.8396 41.1092 23.5929C41.9449 24.6135 45.06 27.4135 45.6245 27.5481C46.1833 27.4135 49.2974 24.6135 50.137 23.5929C50.7538 22.8367 55.2914 17.2387 55.2914 8.51598ZM53.8156 4.39282C54.3977 5.27007 54.5148 7.53167 54.4674 9.20683C54.2156 17.856 50.2493 22.0978 49.6906 22.7795C48.9392 23.6975 46.1309 26.3246 45.6245 26.4577C45.1152 26.3246 42.306 23.6975 41.5527 22.7795C40.995 22.0978 37.0316 17.856 36.7798 9.20882C36.7304 7.53167 36.8475 5.27007 37.4276 4.39282C39.0137 5.2323 42.3864 5.70924 45.6245 5.70924C48.853 5.70775 52.2295 5.2323 53.8156 4.39282ZM44.9395 23.1204L44.921 22.2983C44.5443 22.4444 44.2432 23.0076 44.247 23.4704C44.247 23.5561 44.2703 23.9183 44.4427 24.0102C44.5056 24.0408 44.553 24.0079 44.5811 23.9643C44.706 23.7759 44.6799 23.3411 44.9395 23.1204ZM45.8279 21.4747C45.7495 21.3769 45.5887 21.2254 45.336 21.1547C45.1762 21.1048 45.1743 21.1203 45.0358 21.0684C45.0668 21.8426 45.1074 22.7732 45.1152 23.3243C45.1288 23.8636 45.1452 24.5268 45.1452 24.6504C45.4571 24.8629 45.8492 24.6847 45.8492 24.6847C45.858 24.5985 45.9267 23.7556 45.9431 22.8415C45.948 22.4672 45.9896 21.6369 45.8279 21.4747ZM46.2743 20.1514C46.1309 20.0933 45.765 19.951 45.5887 19.8774C45.366 19.7816 44.9747 19.5821 44.816 19.5293C44.6679 19.4794 44.4257 19.4441 44.7433 19.2785C44.7337 19.0456 44.7047 18.8839 44.6959 18.7038C44.6959 18.5595 44.6707 18.3901 44.6582 18.2168C43.3722 18.2279 42.8532 20.2023 44.9506 20.7276C45.2585 20.8037 45.3525 20.8366 45.4783 20.9C45.7097 21.0239 45.7989 21.0956 45.9073 21.1982C46.04 21.3251 46.1213 21.4906 46.1213 21.7148V22.7224C47.3279 22.0925 47.4479 20.6618 46.2743 20.1514ZM46.0031 18.547C46.0061 18.3824 46.0225 18.161 46.0332 17.9954C46.037 17.9136 46.0206 17.6585 46.0225 17.5955C45.8115 17.5389 45.8095 17.5979 45.3882 17.5544C45.1598 17.5287 45.06 17.5026 44.8692 17.4929C44.8625 17.6469 44.877 18.0754 44.8867 18.2109L44.9138 18.6612V19.0137C44.9138 19.0572 44.9215 19.2509 44.9245 19.2984C45.0735 19.3783 45.2062 19.5085 45.4541 19.6049C45.6245 19.6673 45.8492 19.7762 46.0138 19.8004C46.0138 19.6455 46.008 19.3129 46.0138 19.1531C46.0177 18.85 45.9974 18.8578 46.0031 18.547ZM46.3053 15.9871C45.9848 15.9189 45.8133 15.8782 45.7175 15.867C45.1598 15.7968 44.9874 15.808 44.5206 15.7775L44.2302 15.1065L43.9029 14.3032C42.8193 14.7224 42.6953 16.864 44.3735 17.1845C45.0968 17.3244 45.3128 17.3104 45.5335 17.336C45.9518 17.3811 46.4099 17.3375 46.5348 17.5181C46.7594 17.8411 46.4525 17.9006 46.3053 18.0661C46.2559 18.1891 46.2559 18.2448 46.2453 18.4191C46.2162 18.6985 46.2104 18.9783 46.2085 19.2403C48.0153 19.0572 48.5499 16.4674 46.3053 15.9871ZM44.3337 14.7307L44.7008 15.5601L46.0138 15.6821V13.1402L44.5187 13.0255L43.9832 13.8815L44.3337 14.7307ZM46.4883 11.5328C46.3663 11.5042 46.2491 11.4578 46.1165 11.4254C45.8133 11.3493 45.4706 11.2879 45.0948 11.2477C44.7269 11.2181 44.3871 11.1213 44.114 11.067C42.1211 10.6632 42.3864 9.80187 42.5104 9.39859C42.8445 9.52255 43.1572 9.59711 43.4913 9.64064C43.8815 9.69011 44.3028 9.70411 44.6679 9.53851C44.3406 9.25668 43.5436 9.12749 43.3006 8.90667C43.3006 8.90667 43.7324 8.85106 44.4616 8.93473C44.8256 8.97788 45.2837 8.76527 45.2837 8.76527C45.0135 8.11947 44.1614 7.5162 42.5811 7.77955C40.4072 8.1403 39.7487 12.1782 44.2215 12.7592C44.4838 12.7936 44.9951 12.8294 45.2905 12.8594C45.7562 12.9001 45.9722 12.9001 46.2453 12.9524C46.4331 12.9877 46.9424 13.7217 46.2462 13.7948C46.2462 13.7948 46.1309 14.5729 46.3304 15.4154C48.4221 15.4453 49.2955 12.2164 46.4883 11.5328ZM47.6561 8.10688C47.4256 8.25986 46.7256 8.88872 46.4525 9.02337C46.3091 9.09548 46.3411 7.72631 46.3411 7.72631C46.3508 7.61396 45.9905 7.37965 45.6081 7.22417C45.5626 7.20048 45.4996 7.12592 45.3864 7.07464C44.7927 6.88237 44.4674 6.75655 44.4838 7.3264C44.4887 7.41782 44.4442 7.53265 44.5516 7.70597C44.5516 7.70597 45.1259 7.98729 45.3757 8.46801C45.5248 8.75317 45.5664 8.92989 45.5664 8.92989C45.5664 8.92989 45.4406 9.034 45.0735 9.08773C45.3543 9.17975 45.5916 9.29548 45.8133 9.33474L46.0225 9.5632C45.858 9.58064 45.4173 9.52065 44.9341 9.3637L45.0068 9.58452C44.814 9.74337 44.7269 9.78501 44.3996 9.81883C44.3822 10.1898 44.4064 10.5964 44.4635 10.9315L46.0826 11.2017C46.2123 11.1237 46.3566 10.8366 46.3731 10.8196C46.6616 10.5103 47.2117 9.93116 48.3707 8.8094C48.8094 8.38331 48.119 7.796 47.6561 8.10688ZM43.897 8.26949C43.653 8.11749 43.4991 8.0913 43.4991 8.0913C43.4991 8.0913 43.9909 7.91847 44.4209 8.15189C44.4209 8.15189 44.3541 8.35327 44.2098 8.37072C44.0762 8.3872 43.989 8.3267 43.897 8.26949Z" fill="white"/>
<path d="M29.8272 21.6933H21.5242L21.5286 29.9997H8.30869V21.6933H0V8.44708H8.30869V0.141243H21.5242V8.44708H29.8272V21.6933Z" fill="#1355E9"/>
<path d="M7.52591 11.5988L13.0206 11.6026C13.5666 11.6026 14.0015 11.4434 14.2595 11.1802C14.5861 10.8473 14.6106 10.3484 14.1613 9.80089C13.3665 8.82998 14.0544 7.89768 14.8887 7.93129C15.7191 7.96596 16.4109 8.82998 15.6181 9.80089C15.1687 10.3484 15.1918 10.8473 15.5199 11.1802C15.7706 11.4434 16.2128 11.6026 16.7588 11.6026L22.3993 11.6003C21.8056 10.3166 21.6185 9.97411 20.5981 9.09314C19.2447 7.92023 16.7241 6.84162 14.9566 6.84162C12.6939 6.84162 10.6487 7.76004 9.16742 9.2438C8.49052 9.92358 7.93431 10.7198 7.52591 11.5988ZM9.83467 21.4168C10.3587 20.4315 12.6482 16.1616 13.3665 14.8222C14.1613 13.3336 13.2948 12.7101 12.1224 12.6395C11.0284 12.5779 9.24723 12.2824 7.25257 12.2386C6.94035 13.1071 6.77008 14.0539 6.77008 15.03C6.77008 17.6097 7.96465 19.9147 9.83467 21.4168ZM19.5035 21.843C19.5035 21.843 15.8221 16.5191 15.6181 16.1717C15.4074 15.8287 15.2337 15.6175 14.8887 15.6175C14.5447 15.6175 14.3687 15.8287 14.1613 16.1717C13.9804 16.4772 11.0159 20.7816 10.3245 21.7823C11.6432 22.6917 13.238 23.2175 14.9566 23.2175C16.6423 23.2175 18.2031 22.71 19.5035 21.843ZM23.1465 15.03C23.1465 14.0442 22.9756 13.1013 22.6562 12.2248C20.6081 12.2583 18.7742 12.5749 17.6609 12.6395C16.4816 12.7101 15.6181 13.3336 16.4109 14.8222C17.2119 16.3093 19.8725 21.2916 19.9769 21.499C21.9085 20.0008 23.1465 17.6593 23.1465 15.03Z" fill="white"/>
<path d="M13.2612 10.5293H9.48882C10.3201 9.42131 11.5296 8.59041 12.8113 8.31374C12.3966 9.76618 13.2612 9.87062 13.2612 10.5293ZM20.2905 10.5293C19.3389 9.57808 18.2473 8.59041 16.9651 8.31187C17.3808 9.76618 16.5158 9.87062 16.5158 10.5293H20.2905ZM14.8887 17.1753C14.6467 17.1753 11.9486 21.4364 11.9486 21.4364C12.7425 21.8497 13.748 22.0576 14.8887 22.0576C16.0313 22.0576 17.0359 21.8497 17.8326 21.4364C17.8326 21.4364 15.1302 17.1753 14.8887 17.1753ZM17.761 13.7503C17.4544 13.7845 17.1735 13.8182 17.4544 14.3387C17.7268 14.8569 20.255 19.6337 20.255 19.6337C21.5011 18.0764 22.2968 16.1385 21.8147 13.438C21.8147 13.438 18.0058 13.7503 17.761 13.7503ZM12.0141 13.7503C11.7735 13.7503 7.96464 13.438 7.96464 13.438C7.47918 16.1385 8.27739 18.0764 9.52104 19.6337C9.52104 19.6337 12.0497 14.8569 12.3288 14.3387C12.6001 13.8182 12.3288 13.7845 12.0141 13.7503Z" fill="#1355E9"/>
<g style="mix-blend-mode:hue">
<rect width="57" height="30" fill="#FFFDF4"/>
</g>
</svg>
