<svg width="30" height="30" viewBox="0 0 30 30" fill="none" xmlns="http://www.w3.org/2000/svg">
<path d="M7.20627 0C3.22635 0 0 3.2408 0 7.23853C0 11.2363 3.22635 14.4745 7.20627 14.4745C7.58392 14.4745 8.04026 14.4415 8.40048 14.379L8.65669 14.9984L7.21287 18.5195C7.6903 18.5202 8.17573 18.6029 8.65028 18.7763C8.98697 18.8994 9.29856 19.0611 9.58199 19.2546L11.3268 14.9984L9.59205 10.7377C8.50676 11.483 7.09188 11.7098 5.76226 11.2237C3.57114 10.4226 2.4414 7.989 3.2389 5.78807C4.0364 3.58715 6.45916 2.45235 8.65027 3.25342C10.3668 3.88099 11.4319 5.51052 11.4293 7.24518L14.3123 8.43787C14.3771 8.04758 14.4125 7.64731 14.4125 7.23853C14.4125 3.2408 11.1862 0 7.20627 0Z" fill="#5009B5"/>
<path d="M22.6615 0C18.6816 0 15.4553 3.2408 15.4553 7.23853C15.4553 7.61788 15.4905 8.07592 15.553 8.43809L14.9342 8.69518L11.4293 7.24526C11.4286 7.72479 11.3464 8.21237 11.1736 8.68902C11.0512 9.02703 10.8903 9.33984 10.6979 9.62441L14.9342 11.3772L19.1779 9.63498C18.436 8.54483 18.2102 7.12364 18.6942 5.78807C19.4917 3.58714 21.9144 2.45233 24.1055 3.25341C26.2966 4.05447 27.4264 6.48807 26.6289 8.68899C26.0041 10.4132 24.3818 11.4831 22.6549 11.4805L21.4669 14.3763C21.8554 14.4414 22.2546 14.4771 22.6615 14.4771C26.6415 14.4771 29.8678 11.2363 29.8678 7.23853C29.8678 3.2408 26.6415 0 22.6615 0Z" fill="#44B8F3"/>
<path d="M14.9342 18.6225L10.6899 20.3649C11.4318 21.4551 11.6576 22.8763 11.1737 24.2119C10.3761 26.4128 7.9534 27.5476 5.76228 26.7465C3.57116 25.9454 2.44141 23.5118 3.23891 21.3109C3.86369 19.5867 5.48596 18.5168 7.2129 18.5194L8.40025 15.6236C8.01171 15.5585 7.61323 15.522 7.20627 15.522C3.22636 15.522 0 18.7637 0 22.7614C0 26.7591 3.22636 29.9999 7.20627 29.9999C11.1862 29.9999 14.4125 26.7591 14.4125 22.7614C14.4125 22.382 14.3804 21.9453 14.3137 21.5618L14.9342 21.3047L18.4385 22.7548C18.4392 22.2752 18.5214 21.7876 18.6942 21.3109C18.8166 20.9729 18.9775 20.6601 19.1699 20.3755L14.9342 18.6225Z" fill="#7142FF"/>
<path d="M22.6615 15.522C22.2838 15.522 21.8318 15.5575 21.4668 15.621L21.2113 14.9989L22.6548 11.4804C22.1774 11.4797 21.692 11.397 21.2175 11.2235C20.8808 11.1004 20.5692 10.9387 20.2858 10.7453L18.5411 14.9989L20.2757 19.2622C21.361 18.5169 22.7759 18.2901 24.1055 18.7762C26.2966 19.5773 27.4264 22.0109 26.6289 24.2118C25.8314 26.4127 23.4086 27.5475 21.2175 26.7465C19.5009 26.1189 18.4358 24.4893 18.4384 22.7547L15.5555 21.562C15.4907 21.9523 15.4552 22.3526 15.4552 22.7613C15.4552 26.7591 18.6816 29.9999 22.6615 29.9999C26.6414 29.9999 29.8678 26.7591 29.8678 22.7613C29.8678 18.7636 26.6414 15.522 22.6615 15.522Z" fill="#00BBBA"/>
<g style="mix-blend-mode:hue">
<rect width="30" height="30" fill="#FFFDF4"/>
</g>
</svg>
